<svg width="30" height="30" viewBox="0 0 30 30" fill="none" xmlns="http://www.w3.org/2000/svg">
<g clip-path="url(#clip0_2592_5155)">
<path d="M15.5081 17.9455C17.4175 17.9455 18.9654 16.4115 18.9654 14.5192C18.9654 12.6269 17.4175 11.0928 15.5081 11.0928C13.5987 11.0928 12.0508 12.6269 12.0508 14.5192C12.0508 16.4115 13.5987 17.9455 15.5081 17.9455Z" fill="url(#paint0_linear_2592_5155)"/>
<path d="M20.1349 21.3166C20.1306 21.3166 20.1256 21.3166 20.1213 21.3166C19.9726 21.3166 19.8259 21.3221 19.6804 21.3338C19.5348 21.3448 19.3912 21.362 19.2487 21.3841C18.7924 21.4553 18.3347 21.5903 17.9149 21.7941C17.4572 22.0168 17.064 22.3378 16.6373 22.6097C16.1933 22.8926 15.7314 23.1498 15.2477 23.3603C14.1331 23.8555 12.9305 24.1483 11.7112 24.2231C11.4969 24.2366 11.282 24.2428 11.0672 24.2428C5.49016 24.2428 0.955358 19.821 0.837081 14.3215C0.835842 14.3952 0.833984 14.4682 0.833984 14.5419C0.833984 22.4127 7.14232 28.8217 15.0205 29.077C15.1821 29.0825 15.345 29.0856 15.5078 29.0856C17.038 29.0856 18.5131 28.8524 19.8996 28.4215C20.3256 28.289 20.738 28.1049 21.1802 28.0275C21.6384 27.9471 22.1103 28.0171 22.5518 28.149C23.051 28.2982 23.5135 28.5608 23.8962 28.9113C24.0634 29.0641 24.2152 29.2329 24.3489 29.4151C24.4158 29.5066 24.479 29.6011 24.5366 29.6987C24.557 29.733 24.7155 29.9724 24.6957 30.0006C25.3261 29.1052 25.6958 28.0171 25.6958 26.8431C25.6958 26.2828 25.6116 25.7421 25.4549 25.2327C24.7613 22.9699 22.6429 21.3227 20.1349 21.3166Z" fill="url(#paint1_linear_2592_5155)"/>
<path d="M11.0678 3.96027C14.2898 3.96027 17.1638 5.43686 19.0395 7.74318C20.0693 8.27159 20.9635 9.02277 21.6565 9.93352C21.693 9.98568 21.7308 10.0366 21.7698 10.0863C22.4076 10.9007 23.404 11.4254 24.5248 11.4254C26.4507 11.4254 28.0119 9.87828 28.0119 7.96964C28.0119 7.27369 27.8038 6.62623 27.4465 6.08371C27.366 5.97201 27.2836 5.86216 27.2 5.75353C24.5193 2.25784 20.2805 0 15.5085 0C8.31339 0 2.32768 5.13307 1.07617 11.906C2.08865 7.36084 6.17697 3.96027 11.0678 3.96027Z" fill="url(#paint2_linear_2592_5155)"/>
<path d="M19.248 21.3841C19.3899 21.362 19.5341 21.3448 19.6797 21.3338C19.5341 21.3448 19.3899 21.362 19.248 21.3841Z" fill="url(#paint3_radial_2592_5155)"/>
<path d="M19.248 21.3841C19.3899 21.362 19.5341 21.3448 19.6797 21.3338C19.5341 21.3448 19.3899 21.362 19.248 21.3841Z" fill="url(#paint4_linear_2592_5155)"/>
<path d="M1.07549 11.906C0.917584 12.613 0.833984 13.3476 0.833984 14.1019C0.833984 14.1755 0.835223 14.2492 0.837081 14.3222C0.849466 13.4986 0.929969 12.6909 1.07549 11.906Z" fill="#00F3FF"/>
<path d="M11.0673 24.2434C13.5933 24.2434 16.0462 23.34 17.8315 21.8364C17.1398 22.039 16.2666 22.1445 15.5086 22.1445C11.2593 22.1445 7.81441 18.7304 7.81441 14.5192C7.81441 10.3079 11.2593 6.94904 15.5086 6.89381C18.9659 6.84901 20.8169 9.15287 21.656 9.9329C19.7803 7.62596 16.5861 3.95966 11.068 3.95966C6.1771 3.95966 2.08878 7.36023 1.0763 11.9054C0.931398 12.6909 0.850276 13.4979 0.837891 14.3222C0.955549 19.8216 5.49035 24.2434 11.0673 24.2434Z" fill="url(#paint5_radial_2592_5155)"/>
<path d="M29.2953 19.5332C28.2828 18.504 26.8684 17.8645 25.3029 17.8645C22.3398 17.8645 20.9471 20.5624 18.4199 21.5873C18.6212 21.5234 18.8262 21.4627 19.0367 21.4216C19.1067 21.4081 19.1773 21.3952 19.2485 21.3841C19.3903 21.362 19.5346 21.3449 19.6801 21.3338C19.8256 21.3228 19.9724 21.3166 20.121 21.3166C20.1253 21.3166 20.1303 21.3166 20.1346 21.3166C22.6426 21.3228 24.7611 22.97 25.4553 25.2315C27.1557 23.677 28.4853 21.7297 29.2953 19.5332Z" fill="url(#paint6_radial_2592_5155)"/>
</g>
<defs>
<linearGradient id="paint0_linear_2592_5155" x1="12.943" y1="12.8581" x2="18.7004" y2="16.6543" gradientUnits="userSpaceOnUse">
<stop offset="0.1668" stop-color="#2454FF"/>
<stop offset="0.3281" stop-color="#2467FF"/>
<stop offset="0.6545" stop-color="#2499FF"/>
<stop offset="0.9405" stop-color="#24CAFF"/>
</linearGradient>
<linearGradient id="paint1_linear_2592_5155" x1="6.6106" y1="8.40768" x2="18.481" y2="32.637" gradientUnits="userSpaceOnUse">
<stop stop-color="#2454FF"/>
<stop offset="0.1928" stop-color="#2457FF"/>
<stop offset="0.2956" stop-color="#245DFF"/>
<stop offset="0.4005" stop-color="#2463FF"/>
<stop offset="0.5349" stop-color="#2473FF"/>
<stop offset="0.6854" stop-color="#248DFF"/>
<stop offset="0.8465" stop-color="#24B1FF"/>
<stop offset="0.9405" stop-color="#24CAFF"/>
</linearGradient>
<linearGradient id="paint2_linear_2592_5155" x1="12.5345" y1="5.5058" x2="24.4049" y2="29.7352" gradientUnits="userSpaceOnUse">
<stop stop-color="#2454FF"/>
<stop offset="0.1928" stop-color="#2457FF"/>
<stop offset="0.2956" stop-color="#245DFF"/>
<stop offset="0.4005" stop-color="#2463FF"/>
<stop offset="0.5349" stop-color="#2473FF"/>
<stop offset="0.6854" stop-color="#248DFF"/>
<stop offset="0.8465" stop-color="#24B1FF"/>
<stop offset="0.9405" stop-color="#24CAFF"/>
</linearGradient>
<radialGradient id="paint3_radial_2592_5155" cx="0" cy="0" r="1" gradientUnits="userSpaceOnUse" gradientTransform="translate(22.2267 23.9862) scale(6.81215 6.75096)">
<stop offset="0.3598" stop-color="#163399"/>
<stop offset="0.5259" stop-color="#1D43CA"/>
<stop offset="0.7201" stop-color="#2454FF"/>
</radialGradient>
<linearGradient id="paint4_linear_2592_5155" x1="11.748" y1="5.89135" x2="23.6176" y2="30.1197" gradientUnits="userSpaceOnUse">
<stop stop-color="#2454FF"/>
<stop offset="0.1928" stop-color="#2457FF"/>
<stop offset="0.2956" stop-color="#245DFF"/>
<stop offset="0.4005" stop-color="#2463FF"/>
<stop offset="0.5349" stop-color="#2473FF"/>
<stop offset="0.6854" stop-color="#248DFF"/>
<stop offset="0.8465" stop-color="#24B1FF"/>
<stop offset="0.9405" stop-color="#24CAFF"/>
</linearGradient>
<radialGradient id="paint5_radial_2592_5155" cx="0" cy="0" r="1" gradientUnits="userSpaceOnUse" gradientTransform="translate(5.18502 14.0031) rotate(93.1117) scale(12.7389 13.2626)">
<stop offset="0.0443" stop-color="#2454FF"/>
<stop offset="0.2048" stop-color="#2352F9"/>
<stop offset="0.4146" stop-color="#214DE9"/>
<stop offset="0.6518" stop-color="#1D44CE"/>
<stop offset="0.9072" stop-color="#1838A8"/>
<stop offset="1" stop-color="#163399"/>
</radialGradient>
<radialGradient id="paint6_radial_2592_5155" cx="0" cy="0" r="1" gradientUnits="userSpaceOnUse" gradientTransform="translate(21.8271 24.8816) scale(8.81133 8.73244)">
<stop offset="0.4796" stop-color="#163399"/>
<stop offset="0.5905" stop-color="#1D43CA"/>
<stop offset="0.7201" stop-color="#2454FF"/>
</radialGradient>
<clipPath id="clip0_2592_5155">
<rect width="28.4615" height="30" fill="white" transform="translate(0.833984)"/>
</clipPath>
</defs>
</svg>
